<?xml version="1.0" encoding="utf-8"?>
<!-- Generator: Adobe Illustrator 26.3.1, SVG Export Plug-In . SVG Version: 6.00 Build 0)  -->
<svg version="1.1" id="Layer_1" xmlns="http://www.w3.org/2000/svg" xmlns:xlink="http://www.w3.org/1999/xlink" x="0px" y="0px"
	 viewBox="0 0 45.4 34" style="enable-background:new 0 0 45.4 34;" xml:space="preserve">
<style type="text/css">
	.st0{fill:#FFFFFF;}
</style>
<path class="st0" d="M29,19.9c1.7-1.6,1.7-4.3,0.1-5.9c-1.6-1.7-4.3-1.7-5.9-0.1c0,0,0,0-0.1,0.1c-1.6,1.7-1.6,4.3,0.1,5.9
	C24.8,21.5,27.4,21.5,29,19.9 M11.7,19.9c1.7-1.6,1.7-4.3,0.1-5.9s-4.3-1.7-5.9-0.1c0,0,0,0-0.1,0.1c-1.6,1.7-1.6,4.3,0.1,5.9
	C7.4,21.5,10,21.5,11.7,19.9 M20.4,5.3c-1.6-1.7-4.3-1.7-5.9-0.1c-1.7,1.6-1.7,4.3-0.1,5.9c0,0,0,0,0.1,0.1c1.7,1.6,4.3,1.6,5.9-0.1
	C22,9.6,22,7,20.4,5.3 M20.4,22.7c-1.6-1.7-4.3-1.7-5.9-0.1c-1.7,1.6-1.7,4.3-0.1,5.9c0,0,0,0,0.1,0.1c1.7,1.6,4.3,1.6,5.9-0.1
	C22,26.9,22,24.3,20.4,22.7 M18.2,16.1c-0.5-0.5-1.2-0.5-1.7,0c-0.5,0.5-0.5,1.2,0,1.7l0,0c0.5,0.5,1.2,0.5,1.7,0
	C18.7,17.4,18.7,16.6,18.2,16.1 M43.8,15.2C39.1,25,32.2,29.3,27.3,31.2c-3.6,1.4-6.7,1.7-8.4,1.7c-0.5,0-1,0.1-1.5,0.1
	C8.6,32.9,1.5,25.8,1.5,17S8.6,1.1,17.4,1.1c8.8,0,15.9,7.1,15.9,15.9c0,3.6-1.2,7.2-3.5,10c4-2.3,8.3-6.2,11.5-12.9
	c0.4-0.7,1.2-0.9,1.9-0.5C43.8,13.8,44.1,14.6,43.8,15.2"/>
</svg>
