<?xml version="1.0" encoding="utf-8"?>
<!-- Generator: Adobe Illustrator 26.3.1, SVG Export Plug-In . SVG Version: 6.00 Build 0)  -->
<svg version="1.1" id="Layer_1" xmlns="http://www.w3.org/2000/svg" xmlns:xlink="http://www.w3.org/1999/xlink" x="0px" y="0px"
	 viewBox="0 0 28.3 28.3" style="enable-background:new 0 0 28.3 28.3;" xml:space="preserve">
<style type="text/css">
	.st0{fill:#FFFFFF;}
</style>
<path class="st0" d="M18.2,21.1c-4,2.9-9.8,2.5-13.4-1.1c-4-4-4-10.7,0-14.8c4-4,10.7-4,14.8,0c3.4,3.4,3.9,8.7,1.6,12.8l4.8,4.8
	c0.8,0.8,0.8,2.1,0,2.9l0,0l-0.2,0.2c-0.8,0.8-2.1,0.8-2.9,0C22.8,25.6,18.2,21.1,18.2,21.1z M12.2,19.6c3.9,0,7.2-3.2,7.2-7.2
	s-3.2-7.2-7.2-7.2l0,0c-3.9,0-7.2,3.2-7.2,7.2C5.1,16.5,8.3,19.6,12.2,19.6z"/>
</svg>
