<?xml version="1.0" encoding="utf-8"?>
<!-- Generator: Adobe Illustrator 26.3.1, SVG Export Plug-In . SVG Version: 6.00 Build 0)  -->
<svg version="1.1" id="Layer_1" xmlns="http://www.w3.org/2000/svg" xmlns:xlink="http://www.w3.org/1999/xlink" x="0px" y="0px"
	 viewBox="0 0 28.3 28.3" style="enable-background:new 0 0 28.3 28.3;" xml:space="preserve">
<style type="text/css">
	.st0{fill:#FFFFFF;}
</style>
<path class="st0" d="M15,8.1h6.7c2.2,0,4,1.8,4,4v10c0,2.2-1.8,4-4,4H6.6c-2.2,0-4-1.8-4-4v-10c0-2.2,1.8-4,4-4h6.2l-4-4
	C8.4,3.7,8.4,3,8.8,2.5c0.5-0.5,1.2-0.5,1.6,0L13.9,6l3.5-3.5c0.5-0.5,1.2-0.5,1.6,0s0.5,1.2,0,1.6L15,8.1L15,8.1z M21.5,15.9
	c0.9,0,1.7-0.8,1.7-1.7s-0.8-1.7-1.7-1.7s-1.7,0.8-1.7,1.7S20.5,15.9,21.5,15.9z M21.5,21.9c0.9,0,1.7-0.7,1.8-1.7
	c0-0.9-0.7-1.7-1.7-1.8c0,0-0.1,0-0.1,0c-0.9,0-1.7,0.8-1.7,1.8C19.8,21.1,20.6,21.9,21.5,21.9z"/>
</svg>
